<svg xmlns="http://www.w3.org/2000/svg" viewBox="0 0 32 32"><title>71-Real Estate-Sale</title><g id="_71-Real_Estate-Sale" data-name="71-Real Estate-Sale"><path d="M21,15V7a1,1,0,0,0-1-1H15.62l-.72-1.45A1,1,0,0,0,14,4H12V0H10V4H8a1,1,0,0,0-.89.55L6.38,6H2A1,1,0,0,0,1,7V31a1,1,0,0,0,1,1H15V30H3V8H19v7Z"/><path d="M17,17V13a1,1,0,0,0-1-1H6a1,1,0,0,0-1,1v4a1,1,0,0,0,1,1H16A1,1,0,0,0,17,17ZM7,14h3v2H7Zm8,2H12V14h3Z"/><path d="M12,22V20H7a1,1,0,0,0-1,1v3a1,1,0,0,0,1,1h3v1H6v2h5a1,1,0,0,0,1-1V24a1,1,0,0,0-1-1H8V22Z"/><path d="M18,20H14a1,1,0,0,0-1,1v7h2V26h2v2h2V21A1,1,0,0,0,18,20Zm-3,4V22h2v2Z"/><path d="M22,20H20v7a1,1,0,0,0,1,1h3V26H22Z"/><path d="M30,22V20H26a1,1,0,0,0-1,1v6a1,1,0,0,0,1,1h4V26H27V25h3V23H27V22Z"/></g></svg>